<?xml version="1.0" encoding="UTF-8"?>
<svg viewBox="0 0 200 60" xmlns="http://www.w3.org/2000/svg">
  <defs>
    <!-- Gradient for elegant styling -->
    <linearGradient id="compactTextGradient" x1="0%" y1="0%" x2="100%" y2="100%">
      <stop offset="0%" style="stop-color:#2d4a2b;stop-opacity:1" />
      <stop offset="100%" style="stop-color:#1a2e19;stop-opacity:1" />
    </linearGradient>
    
    <!-- Simplified cannabis leaf -->
    <g id="compactLeaf">
      <path d="M0,5 Q1,4 2,4.5 Q3,3.5 4,4.5 Q5,3 6,4.5 Q7,3.5 8,4.5 Q9,4 10,5 Q9,6 8,5.5 Q7,6.5 6,5.5 Q5,7 4,5.5 Q3,6.5 2,5.5 Q1,6 0,5 Z" 
            fill="currentColor" opacity="0.7"/>
    </g>
  </defs>
  
  <!-- Left decorative elements -->
  <g transform="translate(10,25)" color="#2d4a2b">
    <use href="#compactLeaf" transform="scale(0.8) rotate(-15)"/>
    <use href="#compactLeaf" transform="translate(8,0) scale(0.6) rotate(15)"/>
  </g>
  
  <!-- Main Herbally text -->
  <text x="100" y="35" text-anchor="middle" font-family="serif" font-size="24" font-weight="bold" fill="url(#compactTextGradient)">
    Herbally
  </text>
  
  <!-- Subtitle -->
  <text x="100" y="48" text-anchor="middle" font-family="serif" font-size="8" font-weight="600" fill="#2d4a2b" letter-spacing="1px" opacity="0.8">
    VERY SPECIAL CHRONIC
  </text>
  
  <!-- Right decorative elements -->
  <g transform="translate(170,25)" color="#2d4a2b">
    <use href="#compactLeaf" transform="scale(0.8) rotate(15)"/>
    <use href="#compactLeaf" transform="translate(-8,0) scale(0.6) rotate(-15)"/>
  </g>
  
  <!-- Small decorative dots -->
  <circle cx="75" cy="20" r="1" fill="#2d4a2b" opacity="0.5"/>
  <circle cx="125" cy="20" r="1" fill="#2d4a2b" opacity="0.5"/>
</svg>